<?xml version="1.0" standalone="no"?>
<svg xmlns="http://www.w3.org/2000/svg" viewBox="0 0 112.782 36" width="112.782" height="36"><g fill="#ead017" color="#ead017" transform="translate(0 4) scale(0.5185186)"><svg width="54.0" height="54.0" x="0.0" y="0.0" viewBox="0 0 54 54"><path fill="currentColor" fill-rule="evenodd" d="M.855 53.98c-.7.18-1.224-.903-.525-1.264 5.77-2.166 8.392-4.333 9.966-6.679-6.119-4.513-6.818-9.75-1.924-15.888 4.72 2.89 6.294 9.028 3.671 13.902 2.973-3.973 5.07-8.305 7.343-12.638-6.294-5.054-6.993-11.555-2.098-19.316 4.545 3.972 5.245 10.11 2.448 18.775 2.271-4.152 4.545-8.125 8.217-11.554C23.757 10.832 25.155 4.334 32.148 0c1.922 6.138.7 12.457-3.67 18.956 1.747-1.625 7.167-5.235 9.09-5.957 3.845-6.5 9.264-8.305 16.432-5.416-1.922 7.22-9.964 10.47-16.083 6.68-5.769 2.528-9.44 5.957-12.412 9.748 5.07-3.79 11.013-4.874 18.008-3.068-3.847 7.763-10.141 9.026-18.533 3.792-2.973 3.971-5.07 8.665-7.518 13.178 3.847-5.237 9.267-7.041 16.085-5.777-3.497 6.499-8.917 8.484-16.085 5.777C13.792 44.232 9.595 50.37.855 53.98"></path></svg></g><path fill="#000000" fill-rule="nonzero" d="M3.97 20.38L3.97 20.38Q2.85 20.38 2.09 20.03Q1.32 19.68 0.86 19.07Q0.40 18.47 0.20 17.66Q0 16.85 0 15.95L0 15.95Q0 15.32 0.08 14.53Q0.16 13.73 0.33 12.94L0.33 12.94L2.75 12.94L2.72 15.38Q2.72 16.15 2.79 16.67Q2.86 17.19 3.01 17.50Q3.15 17.81 3.38 17.95Q3.61 18.08 3.94 18.08L3.94 18.08Q4.21 18.08 4.42 17.98Q4.64 17.87 4.79 17.61Q4.95 17.34 5.03 16.89Q5.11 16.44 5.11 15.76L5.11 15.76L5.14 0.18L8.18 0.18L8.18 15.34Q8.18 16.89 7.83 17.87Q7.48 18.86 6.88 19.41Q6.29 19.97 5.54 20.17Q4.78 20.38 3.97 20.38ZM11.30 12.16L11.30 9.79L20.03 9.79L20.03 12.16L11.30 12.16ZM22.44 16.14L22.44 16.14Q22.44 15.49 22.52 14.95Q22.59 14.40 22.75 13.77L22.75 13.77L25.10 13.77L25.10 14.74Q25.10 15.55 25.20 16.17Q25.30 16.79 25.53 17.22Q25.76 17.65 26.14 17.87Q26.52 18.08 27.07 18.08L27.07 18.08Q27.94 18.08 28.39 17.61Q28.85 17.13 28.85 16.22L28.85 16.22Q28.85 15.75 28.79 15.36Q28.72 14.96 28.56 14.58Q28.41 14.19 28.14 13.76Q27.87 13.34 27.45 12.81L27.45 12.81L24.28 9.05Q23.44 7.97 22.98 6.87Q22.52 5.78 22.52 4.54L22.52 4.54Q22.52 3.54 22.83 2.71Q23.14 1.88 23.73 1.27Q24.32 0.67 25.18 0.33Q26.04 0 27.13 0L27.13 0Q28.45 0 29.34 0.38Q30.22 0.75 30.75 1.36Q31.28 1.97 31.49 2.72Q31.71 3.48 31.71 4.24L31.71 4.24Q31.71 4.89 31.61 5.43Q31.51 5.98 31.38 6.63L31.38 6.63L29.04 6.63L29.04 5.68Q29.04 4.09 28.58 3.24Q28.13 2.39 27.09 2.39L27.09 2.39Q26.24 2.39 25.82 2.87Q25.39 3.34 25.39 4.14L25.39 4.14Q25.39 4.56 25.46 4.90Q25.52 5.24 25.65 5.53Q25.77 5.81 25.95 6.08Q26.12 6.35 26.34 6.64L26.34 6.64L29.87 10.91Q30.83 12.16 31.35 13.32Q31.86 14.47 31.86 15.76L31.86 15.76Q31.86 16.83 31.53 17.68Q31.20 18.54 30.57 19.14Q29.95 19.73 29.07 20.06Q28.20 20.38 27.09 20.38L27.09 20.38Q25.73 20.38 24.84 20.02Q23.94 19.65 23.41 19.05Q22.88 18.46 22.66 17.70Q22.44 16.93 22.44 16.14ZM34.25 16.42L34.25 4.05L37.22 4.05L37.22 16.18Q37.22 17.25 37.55 17.67Q37.88 18.08 38.51 18.08L38.51 18.08Q38.95 18.08 39.38 17.84Q39.80 17.59 40.14 17.13L40.14 17.13L40.14 4.05L43.10 4.05L43.10 20.19L40.84 20.19L40.55 18.47L40.54 18.47Q40.18 19.02 39.79 19.39Q39.40 19.76 38.97 19.97Q38.54 20.19 38.10 20.29Q37.65 20.38 37.21 20.38L37.21 20.38Q35.79 20.38 35.02 19.39Q34.25 18.41 34.25 16.42L34.25 16.42ZM49.07 19.13L49.16 21.11L49.16 25.41L46.20 25.41L46.20 4.05L48.52 4.05L48.79 5.75Q48.98 5.43 49.26 5.09Q49.54 4.75 49.90 4.48Q50.27 4.22 50.74 4.05Q51.20 3.88 51.77 3.88L51.77 3.88Q52.02 3.88 52.37 3.93Q52.71 3.97 53.08 4.16Q53.45 4.35 53.82 4.72Q54.19 5.09 54.47 5.73Q54.76 6.38 54.94 7.34Q55.13 8.30 55.13 9.67L55.13 9.67L55.13 14.55Q55.13 15.93 54.94 16.89Q54.76 17.85 54.47 18.49Q54.18 19.14 53.80 19.51Q53.43 19.89 53.04 20.07Q52.65 20.26 52.29 20.31Q51.93 20.37 51.66 20.37L51.66 20.37Q50.72 20.37 50.09 20.00Q49.46 19.64 49.07 19.13L49.07 19.13ZM49.16 7.15L49.16 16.90Q49.25 17.13 49.39 17.34Q49.52 17.55 49.71 17.72Q49.89 17.88 50.12 17.98Q50.34 18.08 50.65 18.08L50.65 18.08Q50.98 18.08 51.25 17.96Q51.52 17.84 51.71 17.51Q51.91 17.19 52.03 16.62Q52.14 16.04 52.14 15.14L52.14 15.14L52.14 8.96Q52.14 8.06 52.03 7.49Q51.91 6.93 51.72 6.60Q51.53 6.27 51.26 6.15Q50.99 6.04 50.66 6.04L50.66 6.04Q50.10 6.04 49.74 6.37Q49.38 6.70 49.16 7.15L49.16 7.15ZM60.67 19.13L60.76 21.11L60.76 25.41L57.80 25.41L57.80 4.05L60.12 4.05L60.39 5.75Q60.59 5.43 60.86 5.09Q61.14 4.75 61.51 4.48Q61.88 4.22 62.34 4.05Q62.80 3.88 63.38 3.88L63.38 3.88Q63.62 3.88 63.97 3.93Q64.31 3.97 64.68 4.16Q65.05 4.35 65.42 4.72Q65.79 5.09 66.08 5.73Q66.36 6.38 66.54 7.34Q66.73 8.30 66.73 9.67L66.73 9.67L66.73 14.55Q66.73 15.93 66.54 16.89Q66.36 17.85 66.07 18.49Q65.78 19.14 65.40 19.51Q65.03 19.89 64.64 20.07Q64.25 20.26 63.89 20.31Q63.53 20.37 63.26 20.37L63.26 20.37Q62.32 20.37 61.69 20.00Q61.07 19.64 60.67 19.13L60.67 19.13ZM60.76 7.15L60.76 16.90Q60.86 17.13 60.99 17.34Q61.13 17.55 61.31 17.72Q61.49 17.88 61.72 17.98Q61.95 18.08 62.25 18.08L62.25 18.08Q62.58 18.08 62.85 17.96Q63.12 17.84 63.32 17.51Q63.52 17.19 63.63 16.62Q63.74 16.04 63.74 15.14L63.74 15.14L63.74 8.96Q63.74 8.06 63.63 7.49Q63.52 6.93 63.32 6.60Q63.13 6.27 62.86 6.15Q62.59 6.04 62.26 6.04L62.26 6.04Q61.70 6.04 61.34 6.37Q60.98 6.70 60.76 7.15L60.76 7.15ZM68.77 16.82L68.77 16.82Q68.77 16.29 68.87 15.80Q68.96 15.30 69.06 15.01L69.06 15.01L71.14 15.01Q71.14 15.89 71.23 16.48Q71.32 17.07 71.52 17.43Q71.72 17.78 72.05 17.93Q72.39 18.08 72.87 18.08L72.87 18.08Q73.54 18.08 73.84 17.71Q74.14 17.33 74.14 16.84L74.14 16.84Q74.14 16.58 74.07 16.35Q74.00 16.11 73.88 15.87Q73.75 15.63 73.56 15.39Q73.37 15.14 73.14 14.85L73.14 14.85L70.97 12.29Q70.55 11.77 70.15 11.22Q69.76 10.68 69.46 10.10Q69.16 9.52 68.98 8.88Q68.80 8.25 68.80 7.55L68.80 7.55Q68.80 6.61 69.12 5.92Q69.45 5.23 69.99 4.77Q70.54 4.31 71.25 4.09Q71.96 3.87 72.76 3.87L72.76 3.87Q73.64 3.87 74.34 4.08Q75.05 4.29 75.55 4.71Q76.05 5.13 76.32 5.76Q76.59 6.39 76.59 7.22L76.59 7.22Q76.59 7.78 76.49 8.31Q76.39 8.84 76.30 9.21L76.30 9.21L74.25 9.21Q74.24 8.41 74.18 7.82Q74.12 7.22 73.96 6.83Q73.80 6.43 73.53 6.23Q73.25 6.04 72.81 6.04L72.81 6.04Q72.42 6.04 72.16 6.16Q71.91 6.28 71.75 6.48Q71.59 6.68 71.53 6.93Q71.46 7.17 71.46 7.43L71.46 7.43Q71.46 7.99 71.73 8.47Q72 8.95 72.45 9.52L72.45 9.52L74.81 12.29Q75.07 12.61 75.41 13.06Q75.75 13.51 76.05 14.06Q76.36 14.60 76.57 15.25Q76.78 15.89 76.78 16.59L76.78 16.59Q76.78 17.45 76.51 18.15Q76.24 18.84 75.71 19.34Q75.19 19.83 74.42 20.10Q73.65 20.37 72.67 20.37L72.67 20.37Q71.86 20.37 71.14 20.19Q70.43 20.00 69.90 19.59Q69.38 19.17 69.07 18.49Q68.77 17.81 68.77 16.82Z" transform="translate(36, 7.905)"></path></svg>