<?xml version="1.0" standalone="no"?>
<svg xmlns="http://www.w3.org/2000/svg" viewBox="0 0 193.164 30.712" width="193.164" height="30.712"><g fill="#debd00" color="#debd00" transform="translate(0, 0) scale(0.29)"><svg width="100.0" height="100.0" x="0.0" y="0.0" viewBox="0 0 100 100"><g><g><path d="M23.702,61.297c-1.438-1.412-2.75-2.909-3.936-4.468c-7.164,0.122-13.735,2.287-18.694,5.934    c4.583,6.779,12.729,12.054,22.627,13.766c9.032,1.562,17.678-0.168,24.132-4.164l-2.527-0.3    C37.5,71.138,29.828,67.313,23.702,61.297z"></path><path d="M45.567,69.839c-4.812-6.156-7.518-14.323-7.518-23.042c0-0.567,0.016-1.131,0.039-1.692    c-7.034-6.54-15.71-9.828-23.594-9.6c-0.089,8.184,3.61,17.155,10.776,24.193C31.261,65.58,38.556,69.007,45.567,69.839z"></path><path d="M80.232,56.829c-1.185,1.559-2.497,3.056-3.935,4.468c-6.126,6.017-13.798,9.841-21.602,10.768l-2.527,0.3    C58.624,76.36,67.27,78.09,76.3,76.528c9.899-1.712,18.044-6.986,22.628-13.766C93.968,59.116,87.398,56.951,80.232,56.829z"></path><path d="M61.95,46.796c0,8.719-2.706,16.886-7.519,23.042c7.012-0.832,14.307-4.259,20.296-10.142    c7.167-7.038,10.866-16.009,10.777-24.193c-7.885-0.228-16.559,3.06-23.594,9.6C61.934,45.666,61.95,46.229,61.95,46.796z"></path><path d="M50,22.901c-5.9,5.671-9.709,14.596-9.709,24.642c0,10.045,3.809,18.97,9.709,24.642c5.9-5.672,9.71-14.597,9.71-24.642    C59.71,37.498,55.9,28.573,50,22.901z"></path><path d="M18.225,54.646c-2.085-3.157-3.659-6.525-4.665-9.978c-3.384,0.064-6.626,0.644-9.574,1.714    c1.094,3.428,2.932,6.77,5.412,9.817C12.201,55.346,15.171,54.815,18.225,54.646z"></path><path d="M91.231,56.2c2.481-3.048,4.32-6.39,5.413-9.817c-2.947-1.071-6.19-1.65-9.575-1.714    c-1.005,3.453-2.579,6.821-4.663,9.978C85.459,54.815,88.429,55.346,91.231,56.2z"></path><path d="M41.59,31.027c-2.759-2.499-5.81-4.459-8.963-5.705c-1.523,3.451-2.338,7.442-2.422,11.619    c2.878,1.431,5.637,3.248,8.176,5.424C38.887,38.342,39.975,34.509,41.59,31.027z"></path><path d="M69.97,36.941c-0.084-4.177-0.897-8.168-2.423-11.619c-3.152,1.246-6.202,3.207-8.962,5.705    c1.615,3.482,2.703,7.314,3.209,11.338C64.333,40.189,67.092,38.372,69.97,36.941z"></path></g></g></svg></g><line x1="41" y1="1" x2="41" y2="28" stroke="#100b0a" stroke-linecap="round"></line><path fill="#100b0a" fill-rule="nonzero" d="M5.47 12.77L3.34 18.74L5.28 18.98Q5.38 19.34 5.28 19.87L5.28 19.87Q3.77 19.80 2.74 19.80L2.74 19.80Q2.16 19.80 0.14 19.85L0.14 19.85Q0 19.42 0.14 18.98L0.14 18.98L1.73 18.70Q2.11 18.12 2.69 16.56L2.69 16.56L8.88 0L9.72 0L16.68 18.74L18.62 18.98Q18.72 19.34 18.62 19.87L18.62 19.87Q17.11 19.80 15.24 19.80L15.24 19.80Q13.85 19.80 11.83 19.85L11.83 19.85Q11.69 19.42 11.83 18.98L11.83 18.98L13.82 18.70L11.71 12.77L5.47 12.77ZM8.66 3.62L8.66 3.62L8.64 3.62Q8.35 4.75 7.70 6.58L7.70 6.58L5.90 11.57L11.28 11.57L9.53 6.58Q9.02 5.11 8.66 3.62ZM25.97 16.87L25.97 16.87L25.99 16.87Q26.28 15.74 26.93 13.92L26.93 13.92L31.30 1.75L29.35 1.51Q29.26 1.15 29.35 0.62L29.35 0.62Q30.67 0.72 31.90 0.72L31.90 0.72Q32.95 0.72 34.49 0.65L34.49 0.65Q34.63 1.08 34.49 1.51L34.49 1.51L32.90 1.80Q32.52 2.38 31.94 3.94L31.94 3.94L25.75 20.52L24.91 20.52L17.81 1.75L15.86 1.51Q15.77 1.15 15.86 0.62L15.86 0.62Q17.18 0.72 19.27 0.72L19.27 0.72Q21.14 0.72 22.70 0.65L22.70 0.65Q22.85 1.08 22.70 1.51L22.70 1.51L20.71 1.80L25.10 13.92Q25.61 15.38 25.97 16.87ZM49.75 16.87L49.75 16.87L49.78 16.87Q50.06 15.74 50.71 13.92L50.71 13.92L55.08 1.75L53.14 1.51Q53.04 1.15 53.14 0.62L53.14 0.62Q54.46 0.72 55.68 0.72L55.68 0.72Q56.74 0.72 58.27 0.65L58.27 0.65Q58.42 1.08 58.27 1.51L58.27 1.51L56.69 1.80Q56.30 2.38 55.73 3.94L55.73 3.94L49.54 20.52L48.70 20.52L41.59 1.75L39.65 1.51Q39.55 1.15 39.65 0.62L39.65 0.62Q40.97 0.72 43.06 0.72L43.06 0.72Q44.93 0.72 46.49 0.65L46.49 0.65Q46.63 1.08 46.49 1.51L46.49 1.51L44.50 1.80L48.89 13.92Q49.39 15.38 49.75 16.87ZM59.06 16.61L59.06 16.61Q59.06 17.86 59.52 18.37Q59.98 18.89 60.96 18.89L60.96 18.89Q61.68 18.89 62.56 18.44Q63.43 18 64.18 17.16L64.18 17.16L64.18 13.42Q61.70 13.56 60.38 14.29Q59.06 15.02 59.06 16.61ZM64.18 12.55L64.18 12.55L64.18 11.33Q64.18 9.29 63.71 8.36Q63.24 7.44 62.16 7.44L62.16 7.44Q61.06 7.44 60.38 8.15Q59.71 8.86 59.47 10.56L59.47 10.56Q58.70 10.73 58.34 10.73L58.34 10.73Q57.41 10.73 57.24 10.06L57.24 10.06Q57.24 8.42 58.66 7.46Q60.07 6.50 62.18 6.50L62.18 6.50Q64.51 6.50 65.48 7.45Q66.46 8.40 66.46 10.85L66.46 10.85L66.46 17.62Q66.46 18.22 66.53 18.65L66.53 18.65L68.42 18.89Q68.52 19.25 68.42 19.80L68.42 19.80Q66.72 19.87 64.80 20.14L64.80 20.14Q64.61 19.94 64.56 19.66L64.56 19.66L64.44 18Q62.45 20.28 60 20.28L60 20.28Q58.49 20.28 57.64 19.42Q56.78 18.55 56.78 17.09L56.78 17.09Q56.78 14.88 58.79 13.75Q60.79 12.62 64.18 12.55ZM73.97 19.22L73.97 19.22Q75.26 19.22 75.89 18.62Q76.51 18.02 76.51 17.23L76.51 17.23Q76.51 16.78 76.37 16.39Q76.22 16.01 75.90 15.65Q75.58 15.29 75.05 14.94Q74.52 14.59 73.73 14.18L73.73 14.18Q72.74 13.68 72.04 13.22Q71.33 12.77 70.87 12.26Q70.42 11.76 70.19 11.18Q69.96 10.61 69.96 9.89L69.96 9.89Q69.96 9.02 70.27 8.39Q70.58 7.75 71.15 7.33Q71.71 6.91 72.48 6.71Q73.25 6.50 74.18 6.50L74.18 6.50Q76.06 6.50 77.83 7.42L77.83 7.42L77.83 10.49L76.70 10.49L76.18 7.90Q75.12 7.39 73.94 7.39L73.94 7.39Q71.98 7.39 71.98 9L71.98 9Q71.98 9.86 72.62 10.58Q73.27 11.30 74.71 12.02L74.71 12.02Q75.70 12.53 76.44 12.98Q77.18 13.44 77.68 13.94Q78.17 14.45 78.42 15.04Q78.67 15.62 78.67 16.37L78.67 16.37Q78.67 17.21 78.31 17.93Q77.95 18.65 77.30 19.16Q76.66 19.68 75.74 19.98Q74.83 20.28 73.73 20.28L73.73 20.28Q71.59 20.28 69.72 19.37L69.72 19.37L69.72 16.30L70.85 16.30L71.38 18.67Q72.60 19.22 73.97 19.22ZM84.24 4.10L84.24 4.10L84.24 7.54L87.62 7.54Q87.67 7.82 87.67 7.97L87.67 7.97Q87.67 8.18 87.62 8.47L87.62 8.47L84.24 8.98L84.24 15.58Q84.24 17.35 84.56 18.08Q84.89 18.82 85.58 18.82L85.58 18.82Q86.21 18.82 87.53 18.31L87.53 18.31Q87.77 18.53 87.86 19.13L87.86 19.13Q87.14 19.56 86.77 19.76Q86.40 19.97 85.84 20.12Q85.27 20.28 84.65 20.28L84.65 20.28Q83.45 20.28 82.69 19.36Q81.94 18.43 81.94 16.54L81.94 16.54L81.94 8.69L80.26 8.47Q80.21 8.23 80.21 8.06L80.21 8.06Q80.21 7.87 80.26 7.54L80.26 7.54Q80.93 7.42 81.42 7.12Q81.91 6.82 82.25 6.28Q82.58 5.74 82.76 5.32Q82.94 4.90 83.21 4.10L83.21 4.10Q83.42 4.03 83.74 4.03L83.74 4.03Q84.02 4.03 84.24 4.10ZM91.10 20.06L91.10 20.06Q91.32 20.16 91.46 20.47L91.46 20.47Q90.67 21.12 90.67 22.42L90.67 22.42Q90.67 23.57 91.73 24.26Q92.78 24.96 94.46 24.96L94.46 24.96Q96.19 24.96 97.34 24.32Q98.50 23.69 98.50 22.54L98.50 22.54Q98.50 21.29 98.04 20.70Q97.58 20.11 96.22 19.99L96.22 19.99L91.73 19.58Q90.98 19.49 90.49 18.80Q90 18.12 90 17.47L90 17.47L91.61 14.81Q90.50 14.18 89.94 13.15Q89.38 12.12 89.38 11.04L89.38 11.04Q89.38 9 90.89 7.75Q92.40 6.50 94.37 6.50L94.37 6.50Q96.26 6.50 97.70 7.51L97.70 7.51Q97.82 4.22 100.15 4.10L100.15 4.10Q100.78 4.25 100.78 5.14L100.78 5.14Q100.78 5.62 100.68 6.19L100.68 6.19Q99.74 6.26 99.14 6.80Q98.54 7.34 98.28 8.04L98.28 8.04Q99.48 9.24 99.48 11.04L99.48 11.04Q99.48 12.94 97.94 14.20Q96.41 15.46 94.37 15.46L94.37 15.46Q93.29 15.46 92.42 15.17L92.42 15.17L91.61 17.30L97.58 17.90Q98.98 18.07 99.71 18.92Q100.44 19.78 100.44 21.14L100.44 21.14Q100.44 23.54 98.71 24.83Q96.98 26.11 94.03 26.11L94.03 26.11Q91.58 26.11 90.22 25.22Q88.85 24.34 88.85 22.85L88.85 22.85Q88.85 21.84 89.50 21.06Q90.14 20.28 91.10 20.06ZM91.54 11.04L91.54 11.04Q91.54 12.43 92.32 13.42Q93.10 14.40 94.39 14.40L94.39 14.40Q95.66 14.40 96.48 13.43Q97.30 12.46 97.30 11.04L97.30 11.04Q97.30 9.50 96.49 8.48Q95.69 7.46 94.39 7.46L94.39 7.46Q93.17 7.46 92.35 8.50Q91.54 9.53 91.54 11.04ZM101.83 13.42L101.83 13.42Q101.83 11.98 102.25 10.72Q102.67 9.46 103.46 8.52Q104.26 7.58 105.37 7.04Q106.49 6.50 107.88 6.50L107.88 6.50Q109.25 6.50 110.38 7.04Q111.50 7.58 112.31 8.52Q113.11 9.46 113.54 10.72Q113.98 11.98 113.98 13.42L113.98 13.42Q113.98 14.90 113.53 16.15Q113.09 17.40 112.28 18.32Q111.48 19.25 110.35 19.76Q109.22 20.28 107.88 20.28L107.88 20.28Q106.46 20.28 105.35 19.78Q104.23 19.27 103.45 18.36Q102.67 17.45 102.25 16.19Q101.83 14.93 101.83 13.42ZM105.34 9L105.34 9Q104.30 10.46 104.30 13.42L104.30 13.42Q104.30 14.88 104.58 15.98Q104.86 17.09 105.34 17.82Q105.82 18.55 106.46 18.91Q107.11 19.27 107.88 19.27L107.88 19.27Q108.62 19.27 109.30 18.91Q109.97 18.55 110.45 17.82Q110.93 17.09 111.22 15.98Q111.50 14.88 111.50 13.42L111.50 13.42Q111.50 11.95 111.22 10.84Q110.93 9.72 110.44 8.99Q109.94 8.26 109.28 7.88Q108.62 7.51 107.88 7.51L107.88 7.51Q106.39 7.51 105.34 9ZM126.07 13.03L126.07 13.03L118.54 13.03Q118.32 19.15 122.21 19.15L122.21 19.15Q123.86 19.15 125.59 17.69L125.59 17.69Q125.95 17.90 126.14 18.43L126.14 18.43Q124.49 20.28 121.94 20.28L121.94 20.28Q116.09 20.28 116.09 13.39L116.09 13.39Q116.09 10.13 117.82 8.32Q119.54 6.50 121.85 6.50L121.85 6.50Q124.37 6.50 125.47 8.26Q126.58 10.01 126.58 12.82L126.58 12.82Q126.34 13.01 126.07 13.03ZM121.80 7.46L121.80 7.46Q120.55 7.46 119.68 8.76Q118.80 10.06 118.61 12.07L118.61 12.07L121.58 12.07Q123.36 12.07 124.13 11.86L124.13 11.86Q124.13 9.89 123.53 8.68Q122.93 7.46 121.80 7.46ZM140.23 4.58L140.23 16.39Q140.23 18 140.30 18.65L140.30 18.65L142.20 18.89Q142.27 19.27 142.20 19.80L142.20 19.80Q140.45 19.87 138.55 20.14L138.55 20.14Q138.38 19.97 138.31 19.68L138.31 19.68L138.19 18.14Q137.35 19.13 136.10 19.72Q134.86 20.30 133.49 20.30L133.49 20.30Q131.40 20.30 130.03 18.56Q128.66 16.82 128.66 13.92L128.66 13.92Q128.66 10.56 130.45 8.53Q132.24 6.50 134.74 6.50L134.74 6.50Q136.70 6.50 137.95 7.44L137.95 7.44L137.95 4.22Q137.95 2.64 137.88 1.87L137.88 1.87L135.98 1.63Q135.89 1.27 135.98 0.72L135.98 0.72Q137.64 0.60 140.11 0.22L140.11 0.22Q140.33 0.46 140.35 0.70L140.35 0.70Q140.23 1.32 140.23 4.58L140.23 4.58ZM134.54 7.80L134.54 7.80Q132.98 7.80 132.05 9.44Q131.11 11.09 131.11 13.99L131.11 13.99Q131.11 16.37 131.99 17.62Q132.86 18.86 134.30 18.86L134.30 18.86Q135.17 18.86 136.20 18.32Q137.23 17.78 137.95 16.82L137.95 16.82L137.95 9.14Q136.78 7.80 134.54 7.80Z" transform="translate(51, 4.6)"></path></svg>